# xmcd
#
# Track frame offsets:
#	150
#	17302
#	32527
#	48079
#	63012
#	78886
#	97197
#	116723
#	133477
#	148810
#	162159
#	176981
#
# Disc length: 2553 seconds
#
# Revision: 3
# Processed by: cddbd v1.5.2PL0 Copyright (c) Steve Scherf et al.
# Submitted via: audiograbber 1.83.01
#
DISCID=9d09f70c
DTITLE=Jim Hendricks - West Of The Pecos
DYEAR=1997
DGENRE=Western
TTITLE0=Don't Fence Me In
TTITLE1=Tumbling Tumbleweeds
TTITLE2=The Strawberry Roan
TTITLE3=Cool Water
TTITLE4=Red Wing
TTITLE5=High Noon (Do Not Forsake Me)
TTITLE6=There's A New Moon Over My Shoulder
TTITLE7=Across The Wide Missouri - Aura Lee
TTITLE8=Someday You'll Want Me To Want You
TTITLE9=The Ballad Of Jesse James
TTITLE10=Along The Navajo Trail
TTITLE11=Cotton-Eyed Joe - Old Joe Clark
EXTD=
EXTT0=
EXTT1=
EXTT2=
EXTT3=
EXTT4=
EXTT5=
EXTT6=
EXTT7=
EXTT8=
EXTT9=
EXTT10=
EXTT11=
PLAYORDER=
